<?xml version="1.0" encoding="utf-8"?>
<!-- Generator: Adobe Illustrator 22.0.0, SVG Export Plug-In . SVG Version: 6.00 Build 0)  -->
<svg version="1.1" id="Layer_1" xmlns="http://www.w3.org/2000/svg" xmlns:xlink="http://www.w3.org/1999/xlink" x="0px" y="0px"
	 viewBox="0 0 500 500" style="enable-background:new 0 0 500 500;" xml:space="preserve">
<style type="text/css">
	.st0{fill:#AAB1BA;}
	.st1{fill:#FDDF7F;}
	.st2{fill:#ECF4F7;}
	.st3{fill:#83E1E5;}
	.st4{fill:#1C1D21;}
	.st5{fill:none;}
</style>
<g>
	<circle class="st0" cx="250" cy="250" r="182.67"/>
</g>
<g>
	<polygon class="st3" points="293.945,173.328 205.489,173.328 161.261,249.933 205.489,326.538 293.945,326.538 338.173,249.933 	
		"/>
</g>
<path class="st4" d="M233.465,16.534c0-2.762,2.239-5,5-5H245V5c0-2.762,2.239-5,5-5c2.762,0,5,2.238,5,5v6.534h6.534
	c2.762,0,5,2.238,5,5s-2.238,5-5,5H255v6.535c0,2.762-2.238,5-5,5c-2.761,0-5-2.238-5-5v-6.535h-6.535
	C235.704,21.534,233.465,19.296,233.465,16.534z M261.534,478.466H255v-6.535c0-2.762-2.238-5-5-5c-2.761,0-5,2.238-5,5v6.535
	h-6.535c-2.761,0-5,2.238-5,5s2.239,5,5,5H245V495c0,2.762,2.239,5,5,5c2.762,0,5-2.238,5-5v-6.534h6.534c2.762,0,5-2.238,5-5
	S264.296,478.466,261.534,478.466z M495,245h-6.534v-6.534c0-2.762-2.238-5-5-5s-5,2.238-5,5V245h-6.535c-2.762,0-5,2.238-5,5
	s2.238,5,5,5h6.535v6.534c0,2.762,2.238,5,5,5s5-2.238,5-5V255H495c2.762,0,5-2.238,5-5S497.762,245,495,245z M28.069,245h-6.534
	v-6.534c0-2.762-2.239-5-5-5s-5,2.238-5,5V245H5c-2.761,0-5,2.238-5,5s2.239,5,5,5h6.535v6.534c0,2.762,2.239,5,5,5s5-2.238,5-5V255
	h6.534c2.761,0,5-2.238,5-5S30.83,245,28.069,245z M104.127,178.328h5.047c2.761,0,5-2.238,5-5s-2.239-5-5-5h-5.047
	c-2.761,0-5,2.238-5,5S101.366,178.328,104.127,178.328z M393.859,321.538h-3.811c-2.762,0-5,2.238-5,5s2.238,5,5,5h3.811
	c2.762,0,5-2.238,5-5S396.621,321.538,393.859,321.538z M403.957,142.813C425.193,173.222,437.67,210.179,437.67,250
	c0,98.467-76.229,179.46-172.772,187.079c-0.014,0.002-0.028,0.002-0.042,0.004c-4.902,0.386-9.856,0.587-14.856,0.587
	c-63.22,0-119.236-31.426-153.257-79.473c-0.393-0.409-0.719-0.865-0.949-1.368C74.71,326.487,62.33,289.665,62.33,250
	c0-97.728,75.091-178.233,170.603-186.886c0.103-0.015,0.205-0.02,0.309-0.027c5.523-0.491,11.11-0.757,16.758-0.757
	c63.071,0,118.975,31.274,153.019,79.13C403.406,141.864,403.729,142.315,403.957,142.813z M250,72.33
	c-2.696,0-5.376,0.07-8.044,0.19l56.328,98.322c0.001,0.001,0.001,0.003,0.002,0.004l39.909,69.124l55.228-94.705
	C361.07,101.083,308.834,72.33,250,72.33z M208.376,321.538h82.683l41.341-71.605l-41.341-71.604h-82.683l-41.341,71.604
	L208.376,321.538z M72.33,250c0,35.015,10.186,67.693,27.744,95.236l56.864-97.816l0,0l39.891-69.092h-69.99c-2.761,0-5-2.238-5-5
	s2.239-5,5-5h78.65h79.829l-54.407-94.971C141.887,82.911,72.33,158.48,72.33,250z M250,427.67c2.01,0,4.01-0.046,6.005-0.112
	l-54.86-98.545l-39.898-69.105l-54.924,94.479C138.655,398.766,191.011,427.67,250,427.67z M427.67,250
	c0-35.178-10.277-67.999-27.985-95.622l-57.19,98.068l-39.89,69.092h69.775c2.762,0,5,2.238,5,5s-2.238,5-5,5h-78.436h-79.95
	l53.059,95.31C357.051,418.236,427.67,342.215,427.67,250z"/>
</svg>
